<svg width="32" height="30" viewBox="0 0 32 30" fill="none" xmlns="http://www.w3.org/2000/svg">
<rect width="32" height="30" rx="8" fill="#23BDEE"/>
<path d="M10.6997 6.25C9.55873 6.36287 8.79048 6.61662 8.21648 7.1915C7.18835 8.22138 7.18835 9.8795 7.18835 13.1966V16.7141C7.18835 20.0304 7.18835 21.6894 8.21648 22.7201C9.2446 23.7509 10.9001 23.75 14.2102 23.75H15.9664C19.2765 23.75 20.932 23.75 21.9601 22.7201C22.8937 21.7839 22.9804 20.3428 22.9882 17.6049" stroke="white" stroke-width="1.5" stroke-linecap="round" stroke-linejoin="round"/>
<path d="M14.2102 10.6252L15.0879 13.6877C15.5779 14.659 16.193 14.9127 17.7216 15.0002C18.937 14.9705 19.6422 14.827 20.2442 14.3037C20.6546 13.9467 20.8401 13.4086 20.9302 12.8731L21.2312 11.0627M23.4257 9.31271V13.6877M12.5259 8.81658C13.9145 7.66421 15.1517 7.04558 17.7181 6.36483C18.0076 6.28839 18.3122 6.2899 18.601 6.36921C20.8725 6.99396 22.0992 7.54871 23.7425 8.78246C23.8125 8.83496 23.8335 8.93296 23.7845 9.00558C23.2481 9.79483 22.0502 10.4345 19.112 11.5737C18.5 11.8092 17.8217 11.8054 17.2124 11.5632C14.0834 10.3207 12.6449 9.65571 12.4699 8.96533C12.4642 8.93778 12.4664 8.90918 12.4763 8.88285C12.4862 8.85652 12.5034 8.83354 12.5259 8.81658Z" stroke="white" stroke-width="1.5" stroke-linecap="round" stroke-linejoin="round"/>
</svg>
