<svg width="49" height="48" viewBox="0 0 49 48" fill="none" xmlns="http://www.w3.org/2000/svg">
<rect x="0.159912" width="48.5" height="47.5" rx="8" fill="#23BDEE"/>
<g clip-path="url(#clip0_119_2545)">
<path d="M17.7413 10.6875C17.2151 10.6875 16.7886 11.1052 16.7886 11.6206V13.4866H18.6939V11.6206C18.6939 11.1052 18.2674 10.6875 17.7413 10.6875Z" fill="white"/>
<path d="M31.0787 10.6875C30.5525 10.6875 30.126 11.1052 30.126 11.6206V13.4866H32.0313V11.6206C32.0314 11.1052 31.6048 10.6875 31.0787 10.6875Z" fill="white"/>
<path d="M34.8895 13.4868H32.0314V17.219C32.0314 17.7343 31.6049 18.152 31.0787 18.152C30.5526 18.152 30.126 17.7343 30.126 17.219V13.4868H18.6939V17.219C18.6939 17.7343 18.2674 18.152 17.7412 18.152C17.215 18.152 16.7885 17.7343 16.7885 17.219V13.4868H13.9305C12.3521 13.4868 11.0725 14.74 11.0725 16.2859V34.0136C11.0725 35.5595 12.3521 36.8127 13.9305 36.8127H34.8895C36.4679 36.8127 37.7475 35.5595 37.7475 34.0136V16.2859C37.7475 14.74 36.4679 13.4868 34.8895 13.4868ZM35.8421 34.0136C35.8421 34.5289 35.4156 34.9467 34.8894 34.9467H13.9305C13.4044 34.9467 12.9778 34.5289 12.9778 34.0136V21.8841H35.8421V34.0136Z" fill="white"/>
<path d="M18.694 23.75H16.7886C16.2625 23.75 15.8359 24.1677 15.8359 24.6831C15.8359 25.1984 16.2625 25.6161 16.7886 25.6161H18.694C19.2201 25.6161 19.6467 25.1984 19.6467 24.6831C19.6467 24.1677 19.2201 23.75 18.694 23.75Z" fill="white"/>
<path d="M25.3627 23.75H23.4573C22.9312 23.75 22.5046 24.1677 22.5046 24.6831C22.5046 25.1984 22.9312 25.6161 23.4573 25.6161H25.3627C25.8889 25.6161 26.3154 25.1984 26.3154 24.6831C26.3154 24.1677 25.8889 23.75 25.3627 23.75Z" fill="white"/>
<path d="M32.0314 23.75H30.126C29.5999 23.75 29.1733 24.1677 29.1733 24.6831C29.1733 25.1984 29.5999 25.6161 30.126 25.6161H32.0314C32.5575 25.6161 32.9841 25.1984 32.9841 24.6831C32.9841 24.1677 32.5575 23.75 32.0314 23.75Z" fill="white"/>
<path d="M18.694 27.4819H16.7886C16.2625 27.4819 15.8359 27.8997 15.8359 28.415C15.8359 28.9303 16.2625 29.348 16.7886 29.348H18.694C19.2201 29.348 19.6467 28.9303 19.6467 28.415C19.6467 27.8997 19.2201 27.4819 18.694 27.4819Z" fill="white"/>
<path d="M25.3627 27.4819H23.4573C22.9312 27.4819 22.5046 27.8997 22.5046 28.415C22.5046 28.9303 22.9312 29.348 23.4573 29.348H25.3627C25.8889 29.348 26.3154 28.9303 26.3154 28.415C26.3154 27.8997 25.8889 27.4819 25.3627 27.4819Z" fill="white"/>
<path d="M32.0314 27.4819H30.126C29.5999 27.4819 29.1733 27.8997 29.1733 28.415C29.1733 28.9303 29.5999 29.348 30.126 29.348H32.0314C32.5575 29.348 32.9841 28.9303 32.9841 28.415C32.984 27.8997 32.5575 27.4819 32.0314 27.4819Z" fill="white"/>
<path d="M18.694 31.2144H16.7886C16.2625 31.2144 15.8359 31.6321 15.8359 32.1474C15.8359 32.6627 16.2625 33.0804 16.7886 33.0804H18.694C19.2201 33.0804 19.6467 32.6627 19.6467 32.1474C19.6467 31.632 19.2201 31.2144 18.694 31.2144Z" fill="white"/>
<path d="M25.3627 31.2144H23.4573C22.9312 31.2144 22.5046 31.6321 22.5046 32.1474C22.5046 32.6627 22.9312 33.0805 23.4573 33.0805H25.3627C25.8889 33.0805 26.3154 32.6627 26.3154 32.1474C26.3154 31.6321 25.8889 31.2144 25.3627 31.2144Z" fill="white"/>
<path d="M32.0314 31.2144H30.126C29.5999 31.2144 29.1733 31.6321 29.1733 32.1474C29.1733 32.6627 29.5999 33.0805 30.126 33.0805H32.0314C32.5575 33.0805 32.9841 32.6627 32.9841 32.1474C32.9841 31.6321 32.5575 31.2144 32.0314 31.2144Z" fill="white"/>
</g>
<defs>
<clipPath id="clip0_119_2545">
<rect width="26.675" height="26.125" fill="white" transform="translate(11.0725 10.6875)"/>
</clipPath>
</defs>
</svg>
