<svg width="126" height="126" viewBox="0 0 126 126" fill="none" xmlns="http://www.w3.org/2000/svg">
<g filter="url(#filter0_d_119_797)">
<rect x="38.3601" y="20.3599" width="48.96" height="48.96" rx="12.24" fill="#20B486"/>
<g clip-path="url(#clip0_119_797)">
<path d="M75.2712 50.2583H74.1874V49.3021H75.2712C76.0362 49.3021 76.6737 48.6646 76.6737 47.8996V41.2058C76.6737 39.9946 75.6537 38.9746 74.4424 38.9746H67.4299C66.2187 38.9746 65.1987 39.9946 65.1987 41.2058V47.8996C65.1987 48.6646 65.8362 49.3021 66.6012 49.3021H67.6849V50.2583H66.6012C65.2624 50.2583 64.2424 49.1746 64.2424 47.8996V41.2058C64.2424 39.4208 65.6449 38.0183 67.4299 38.0183H74.5062C76.2912 38.0183 77.6937 39.4208 77.6937 41.2058V47.8996C77.6937 49.2383 76.6099 50.2583 75.2712 50.2583ZM70.9362 36.9983C69.0237 36.9983 67.4299 35.4046 67.4299 33.4921C67.4299 31.5796 69.0237 29.9858 70.9362 29.9858C72.8487 29.9858 74.4424 31.5796 74.4424 33.4921C74.4424 35.4046 72.9124 36.9983 70.9362 36.9983ZM70.9362 31.0058C69.5337 31.0058 68.3862 32.1533 68.3862 33.5558C68.3862 34.9583 69.5337 36.1058 70.9362 36.1058C72.3387 36.1058 73.4862 34.9583 73.4862 33.5558C73.4862 32.1533 72.3387 31.0058 70.9362 31.0058Z" fill="#F5F5F4"/>
<path d="M72.5937 59.6934C71.9562 59.6934 71.3825 59.3747 71 58.9284C70.6175 59.3747 70.0437 59.6934 69.4062 59.6934C68.2587 59.6934 67.3025 58.7372 67.3025 57.5897V42.0347H68.2587V57.5897C68.2587 58.2272 68.7687 58.7372 69.4062 58.7372C70.0437 58.7372 70.49 58.1634 70.49 57.5897V49.8122H71.4462V57.5897C71.4462 58.2272 71.9562 58.7372 72.5937 58.7372C73.2312 58.7372 73.7412 58.2272 73.7412 57.5897V42.0347H74.6975V57.5897C74.6975 58.7372 73.7412 59.6934 72.5937 59.6934Z" fill="#F5F5F4"/>
<path d="M65.7088 53.0634H48.05V33.0459H66.0275V34.0021H49.0063V52.1071H65.7088V53.0634Z" fill="#F5F5F4"/>
<path d="M62.5851 41.9707H51.6201V42.927H62.5851V41.9707Z" fill="#F5F5F4"/>
<path d="M62.5851 45.2222H51.6201V46.1784H62.5851V45.2222Z" fill="#F5F5F4"/>
<path d="M62.5851 48.5371H51.6201V49.4934H62.5851V48.5371Z" fill="#F5F5F4"/>
</g>
</g>
<defs>
<filter id="filter0_d_119_797" x="0.110107" y="0.469864" width="125.46" height="125.46" filterUnits="userSpaceOnUse" color-interpolation-filters="sRGB">
<feFlood flood-opacity="0" result="BackgroundImageFix"/>
<feColorMatrix in="SourceAlpha" type="matrix" values="0 0 0 0 0 0 0 0 0 0 0 0 0 0 0 0 0 0 127 0" result="hardAlpha"/>
<feOffset dy="18.36"/>
<feGaussianBlur stdDeviation="19.125"/>
<feComposite in2="hardAlpha" operator="out"/>
<feColorMatrix type="matrix" values="0 0 0 0 0.0509804 0 0 0 0 0.0470588 0 0 0 0 0.219608 0 0 0 0.15 0"/>
<feBlend mode="normal" in2="BackgroundImageFix" result="effect1_dropShadow_119_797"/>
<feBlend mode="normal" in="SourceGraphic" in2="effect1_dropShadow_119_797" result="shape"/>
</filter>
<clipPath id="clip0_119_797">
<rect width="30.6" height="30.6" fill="white" transform="translate(47.54 29.5396)"/>
</clipPath>
</defs>
</svg>
