<svg width="234" height="203" viewBox="0 0 234 203" fill="none" xmlns="http://www.w3.org/2000/svg">
<path d="M117.475 2.39502L232.516 201.104L232.95 201.854H1.13281L1.56738 201.104L116.609 2.39502L117.042 1.64795L117.475 2.39502ZM117.042 149.563C114.205 149.563 111.852 150.518 109.949 152.427C108.046 154.337 107.09 156.691 107.083 159.522C107.076 162.351 108.032 164.707 109.949 166.625C111.866 168.541 114.218 169.492 117.039 169.479H117.042L117.568 169.468C120.172 169.356 122.354 168.404 124.145 166.614C126.054 164.704 127.007 162.351 127 159.522C126.993 156.691 126.037 154.337 124.134 152.427C122.231 150.518 119.879 149.563 117.042 149.563ZM107.083 138.104H127V86.813H107.083V138.104Z" fill="#FF0000" stroke="black"/>
</svg>
