<svg width="24" height="25" viewBox="0 0 24 25" fill="none" xmlns="http://www.w3.org/2000/svg">
<path fill-rule="evenodd" clip-rule="evenodd" d="M8.53162 3.1438C10.7165 1.87431 13.402 1.89649 15.5664 3.20193C17.7095 4.53395 19.012 6.91121 18.9998 9.46847C18.95 12.009 17.5533 14.397 15.8075 16.2431C14.7998 17.3134 13.6726 18.2599 12.4488 19.0631C12.3228 19.1359 12.1848 19.1847 12.0415 19.207C11.9036 19.2012 11.7693 19.1604 11.6508 19.0885C9.78243 17.8816 8.14334 16.3411 6.81233 14.541C5.69859 13.0384 5.06584 11.223 5 9.34145C4.99856 6.77928 6.34677 4.4133 8.53162 3.1438ZM9.79427 10.4018C10.1618 11.3079 11.0293 11.8989 11.9917 11.8989C12.6222 11.9034 13.2283 11.6509 13.6749 11.1975C14.1215 10.7442 14.3716 10.1277 14.3694 9.48541C14.3727 8.50506 13.7956 7.61934 12.9074 7.2418C12.0192 6.86426 10.9952 7.06938 10.3134 7.76137C9.6317 8.45337 9.42675 9.49575 9.79427 10.4018Z" fill="black"/>
<ellipse opacity="0.4" cx="12" cy="21.207" rx="5" ry="1" fill="black"/>
</svg>
