<svg width="24" height="25" viewBox="0 0 24 25" fill="none" xmlns="http://www.w3.org/2000/svg">
<path opacity="0.4" d="M22 16.147C22 18.937 19.76 21.197 16.97 21.207H16.96H7.05C4.27 21.207 2 18.957 2 16.167V16.157C2 16.157 2.006 11.731 2.014 9.50503C2.015 9.08703 2.495 8.85303 2.822 9.11303C5.198 10.998 9.447 14.435 9.5 14.48C10.21 15.049 11.11 15.37 12.03 15.37C12.95 15.37 13.85 15.049 14.56 14.469C14.613 14.434 18.767 11.1 21.179 9.18403C21.507 8.92303 21.989 9.15703 21.99 9.57403C22 11.783 22 16.147 22 16.147Z" fill="black"/>
<path d="M21.4761 5.88103C20.6101 4.24903 18.9061 3.20703 17.0301 3.20703H7.05013C5.17413 3.20703 3.47013 4.24903 2.60413 5.88103C2.41013 6.24603 2.50213 6.70103 2.82513 6.95903L10.2501 12.898C10.7701 13.318 11.4001 13.527 12.0301 13.527C12.0341 13.527 12.0371 13.527 12.0401 13.527C12.0431 13.527 12.0471 13.527 12.0501 13.527C12.6801 13.527 13.3101 13.318 13.8301 12.898L21.2551 6.95903C21.5781 6.70103 21.6701 6.24603 21.4761 5.88103Z" fill="black"/>
</svg>
