<svg width="28" height="26" viewBox="0 0 28 26" fill="none" xmlns="http://www.w3.org/2000/svg">
<path fill-rule="evenodd" clip-rule="evenodd" d="M26.5865 15.6586C23.0385 15.6586 23.0385 10.1727 26.5865 10.1727C26.5865 3.81648 26.5865 1.54785 14.0599 1.54785C1.5332 1.54785 1.5332 3.81648 1.5332 10.1727C5.0812 10.1727 5.0812 15.6586 1.5332 15.6586C1.5332 22.0161 1.5332 24.2847 14.0599 24.2847C26.5865 24.2847 26.5865 22.0161 26.5865 15.6586Z" stroke="white" stroke-width="1.5" stroke-linecap="round" stroke-linejoin="round"/>
<path fill-rule="evenodd" clip-rule="evenodd" d="M14.06 9.22803C13.1493 9.22803 13.0627 10.6807 12.5213 11.1948C11.9787 11.7076 10.2947 11.1215 10.06 12.0322C9.82666 12.9442 11.3427 13.2537 11.5307 14.0356C11.7173 14.8175 10.792 15.9164 11.5827 16.4647C12.3747 17.0103 13.2267 15.7737 14.06 15.7737C14.8933 15.7737 15.7453 17.0103 16.5373 16.4647C17.3293 15.9164 16.4027 14.8175 16.5893 14.0356C16.7773 13.2537 18.2933 12.9442 18.06 12.0322C17.8253 11.1215 16.1413 11.7076 15.5987 11.1948C15.0573 10.6807 14.9707 9.22803 14.06 9.22803Z" stroke="white" stroke-width="1.5" stroke-linecap="round" stroke-linejoin="round"/>
</svg>
