<svg width="24" height="25" viewBox="0 0 24 25" fill="none" xmlns="http://www.w3.org/2000/svg">
<path opacity="0.4" d="M21.9998 12.207C21.9998 17.731 17.5228 22.207 11.9998 22.207C6.47676 22.207 1.99976 17.731 1.99976 12.207C1.99976 6.68503 6.47676 2.20703 11.9998 2.20703C17.5228 2.20703 21.9998 6.68503 21.9998 12.207Z" fill="black"/>
<path d="M15.5734 16.0218C15.4424 16.0218 15.3104 15.9878 15.1894 15.9168L11.2634 13.5748C11.0374 13.4388 10.8984 13.1938 10.8984 12.9298V7.88281C10.8984 7.46881 11.2344 7.13281 11.6484 7.13281C12.0624 7.13281 12.3984 7.46881 12.3984 7.88281V12.5038L15.9584 14.6268C16.3134 14.8398 16.4304 15.2998 16.2184 15.6558C16.0774 15.8908 15.8284 16.0218 15.5734 16.0218Z" fill="black"/>
</svg>
